<?xml version="1.0" encoding="utf-8"?>
<!-- Generator: Adobe Illustrator 26.1.0, SVG Export Plug-In . SVG Version: 6.00 Build 0)  -->
<svg version="1.1" id="Warstwa_1" xmlns="http://www.w3.org/2000/svg" xmlns:xlink="http://www.w3.org/1999/xlink" x="0px" y="0px"
	 viewBox="0 0 1366 768" style="enable-background:new 0 0 1366 768;" xml:space="preserve">
<style type="text/css">
	.st0{fill:#FFBF00;}
</style>
<g>
	<path class="st0" d="M238.8,266.3c-15.1-9.2-32-13.8-50.7-13.8c-16.1,0-30.3,3.3-42.8,9.9c-12.5,6.6-22.3,15.1-29.4,25.7V182.6
		H60.6v296h55.3v-35.1c7.4,10.3,17.2,18.6,29.4,25.1c12.2,6.4,26.5,9.7,42.8,9.7c18.7,0,35.6-4.7,50.7-14.2
		c15.1-9.5,27.1-22.8,35.9-40.1c8.8-17.2,13.2-37,13.2-59.4c0-22.4-4.4-42-13.2-59C265.9,288.6,253.9,275.5,238.8,266.3z
		 M223.4,399.3c-5.4,9.7-12.5,17.2-21.3,22.5c-8.8,5.3-18.4,7.9-28.6,7.9c-10,0-19.4-2.6-28.2-7.7c-8.8-5.1-15.9-12.6-21.3-22.3
		c-5.4-9.7-8.1-21.2-8.1-34.3c0-13.2,2.7-24.6,8.1-34.3c5.4-9.7,12.5-17.2,21.3-22.3c8.8-5.1,18.2-7.7,28.2-7.7
		c10.3,0,19.8,2.5,28.6,7.5c8.8,5,15.9,12.3,21.3,21.9c5.4,9.6,8.1,21,8.1,34.1C231.5,378,228.8,389.6,223.4,399.3z"/>
	<path class="st0" d="M737.6,256.8c-13.7,0-26.2,2.7-37.7,8.1c-11.4,5.4-20.9,12.8-28.2,22.3V260h-55.3v218.7h55.3V357.9
		c0-17.4,4.4-30.7,13.2-40.1c8.8-9.3,20.9-14,36.1-14c15,0,26.8,4.7,35.5,14c8.7,9.3,13,22.7,13,40.1v120.8h55.3V350.4
		c0-29.5-8-52.4-24.1-68.9C784.7,265,763.7,256.8,737.6,256.8z"/>
	<path class="st0" d="M1018.8,291.2c-7.1-10.3-16.8-18.6-29.2-25.1c-12.4-6.4-26.7-9.7-43-9.7c-18.7,0-35.6,4.6-50.7,13.8
		c-15.1,9.2-27.1,22.4-35.9,39.5c-8.8,17.1-13.2,36.7-13.2,58.8c0,22.4,4.4,42.2,13.2,59.4c8.8,17.2,20.9,30.6,36.1,40.1
		c15.3,9.5,32.1,14.2,50.5,14.2c16,0,30.3-3.4,42.8-10.3c12.5-6.8,22.3-15.4,29.4-25.7v33.9c0,19.5-5,34-15,43.6
		c-10,9.6-23,14.4-39.1,14.4c-13.7,0-25.3-3-34.9-8.9c-9.6-5.9-15.9-13.9-18.7-23.9h-54.9c2.6,25,13.9,44.7,33.7,59.2
		c19.9,14.5,45.3,21.7,76.4,21.7c23.2,0,42.9-4.7,59.2-14c16.3-9.3,28.5-22,36.7-37.9c8.2-15.9,12.2-34,12.2-54.3V260h-55.7V291.2z
		 M1011,403.8c-5.3,9.6-12.4,17-21.3,22.1c-8.9,5.1-18.6,7.7-28.8,7.7c-10,0-19.4-2.6-28.2-7.9c-8.8-5.3-15.9-12.8-21.3-22.7
		c-5.4-9.9-8.1-21.4-8.1-34.5c0-13.2,2.7-24.5,8.1-34.1c5.4-9.6,12.4-16.9,21.1-21.9c8.7-5,18.2-7.5,28.4-7.5
		c10.3,0,19.9,2.6,28.8,7.7c8.9,5.1,16,12.5,21.3,22.1c5.3,9.6,7.9,21.1,7.9,34.5S1016.2,394.2,1011,403.8z"/>
	<path class="st0" d="M441.6,259.9c-23.2,2.7-48.1,9.3-66.3,23.8c-2.2,1.8-4.4,3.6-6.4,5.6c-0.1,0.1-0.2,0.2-0.3,0.3v-27.1h-58.8
		v216.1h61.6v-104c0-3.3,0.2-6.3,0.5-9.3c0.8-5.9,3.5-17.5,12.8-28.5c0.8-0.8,1.6-1.7,2.5-2.5c14.5-15.3,35.3-23.2,59.3-26v-48.9
		C444.8,259.5,443.2,259.7,441.6,259.9z"/>
	<path class="st0" d="M568.1,282.9c-9.5-8.5-21.3-14.6-35.2-18.5c-5.1-1.4-10.6-2.5-16.4-3.3c0,0-14.6-2.4-34.8-2.6v48.8
		c14,0.4,23.9,3.2,30.7,6.5c0.2,0.1,0.3,0.2,0.5,0.2c1.4,0.7,2.6,1.4,3.8,2.1c0.1,0.1,0.3,0.2,0.4,0.2c4.8,3.2,7.6,6.4,9.1,8.7
		c3.6,5.1,6,11.6,6.7,20.2c0.1,1.6,0.2,3.2,0.2,4.9H484c-31.1,0-54,5.7-68.9,17c-14.9,11.3-22.3,26.8-22.3,46.6
		c0,12.4,3.2,23.4,9.5,33.2c6.3,9.7,15.5,17.4,27.4,22.9c12,5.5,26.1,8.3,42.4,8.3c31.6,0,53.1-9.9,64.7-29.6v30.2h57.6V353.7
		c0-26.2-7.1-48.1-17.2-60.8C574.5,289.3,571.5,285.9,568.1,282.9z M533,407.8c-3.4,9.5-9.2,16.6-17.4,21.5
		c-8.2,4.9-17.5,7.3-28,7.3c-10.8,0-19.3-2.3-25.5-6.9c-6.2-4.6-9.3-10.9-9.3-18.7c0-16.6,12.6-24.9,37.9-24.9H533V407.8z"/>
	<g>
		<path class="st0" d="M1194.1,255.9c-13.4,0-26.5,2.4-38.7,6.9l45.4,45.4c27.5,3.1,49.3,24.9,52.4,52.4c0.2,2.2,0.4,4.4,0.4,6.6
			c0,2.5-0.2,5-0.5,7.5c-3.4,26.8-24.7,48.1-51.5,51.5l-45.6,45.6c11.9,4.4,24.8,6.8,38.2,6.8c61.4,0,111.3-50,111.3-111.4
			C1305.4,305.8,1255.5,255.9,1194.1,255.9z"/>
		<path class="st0" d="M1164.7,315.6l-1.6-1.6l-0.9-0.9l-35-35c-4.2,3.1-8.2,6.6-11.9,10.3c-8.2,8.2-15,17.5-20.2,27.6l36.5,36.5
			l4,4l2.7,2.7l8.3,8.3l-8.3,8.3l-2.7,2.7l-3.4,3.4l-36.9,36.9c7.8,14.9,18.9,27.8,32.3,37.8l34.7-34.7l1.8-1.8l1-1l51.5-51.5
			L1164.7,315.6z"/>
	</g>
</g>
</svg>
